<svg width="46" height="53" viewBox="0 0 46 53" fill="none" xmlns="http://www.w3.org/2000/svg">
<path d="M15.125 10.1667L23 2M23 2L30.875 10.1667M23 2V29.2222M9.8756 21.0556C7.42941 21.0556 6.20631 21.0556 5.24152 21.47C3.95512 22.0226 2.93248 23.0831 2.39963 24.4171C2 25.4177 2 26.6854 2 29.2222V42.2889C2 45.3381 2 46.8616 2.57222 48.0262C3.07555 49.0507 3.87812 49.8852 4.86597 50.4072C5.9879 51 7.45736 51 10.3919 51H35.6094C38.5439 51 40.0113 51 41.1332 50.4072C42.121 49.8852 42.925 49.0507 43.4283 48.0262C44 46.8627 44 45.3405 44 42.2973V29.2222C44 26.6854 43.9997 25.4177 43.6001 24.4171C43.0673 23.0831 42.0455 22.0226 40.7591 21.47C39.7943 21.0556 38.5712 21.0556 36.125 21.0556" stroke="#262626" stroke-width="3" stroke-linecap="round" stroke-linejoin="round"/>
</svg>

