<svg width="45" height="38" viewBox="0 0 45 38" fill="none" xmlns="http://www.w3.org/2000/svg">
<path d="M2 24.6672V28.7467C2 31.2856 2 32.5541 2.49652 33.5239C2.93327 34.3769 3.62967 35.0718 4.48684 35.5064C5.46037 36 6.73544 36 9.28177 36H43M2 24.6672V2M2 24.6672L10.7771 17.3885L10.7843 17.3827C12.3721 16.066 13.1676 15.4064 14.0301 15.1385C15.0489 14.822 16.1465 14.872 17.1324 15.279C17.9682 15.6241 18.7011 16.3534 20.1668 17.812L20.1815 17.8266C21.67 19.3079 22.4163 20.0505 23.2655 20.3948C24.2704 20.8022 25.3892 20.8373 26.4191 20.4973C27.2923 20.209 28.0898 19.5158 29.6845 18.1273L42.9995 6.53333" stroke="#262626" stroke-width="3" stroke-linecap="round" stroke-linejoin="round"/>
</svg>

