<svg width="34" height="46" viewBox="0 0 34 46" fill="none" xmlns="http://www.w3.org/2000/svg">
<path d="M13.6941 27.4988L18.2125 30.1075L9.03701 46L6.40344 40.1266L13.6941 27.4988Z" fill="white"/>
<path d="M13.6941 27.4988L18.2125 30.1075L9.03701 46L6.40344 40.1266L13.6941 27.4988Z" fill="#A3B3C5" fill-opacity="0.6"/>
<path d="M13.6941 27.4988L9.17564 24.89L0.000103638 40.7825L6.40344 40.1266L13.6941 27.4988Z" fill="#A3B3C5"/>
<path d="M20.1404 27.4988L15.6219 30.1075L24.7975 46L27.431 40.1266L20.1404 27.4988Z" fill="#A3B3C5"/>
<path d="M20.1404 27.4988L24.6588 24.89L33.8344 40.7825L27.431 40.1266L20.1404 27.4988Z" fill="white"/>
<path d="M20.1404 27.4988L24.6588 24.89L33.8344 40.7825L27.431 40.1266L20.1404 27.4988Z" fill="#A3B3C5" fill-opacity="0.6"/>
<circle cx="16.7786" cy="16.5562" r="16.0562" fill="#FFBD3C" stroke="#A3B3C5"/>
<circle cx="16.7785" cy="16.5561" r="12.143" fill="#A83200"/>
<mask id="mask0_196_162" style="mask-type:alpha" maskUnits="userSpaceOnUse" x="5" y="5" width="25" height="26">
<circle cx="17.4269" cy="17.8524" r="12.1712" fill="#C28B37"/>
</mask>
<g mask="url(#mask0_196_162)">
<circle cx="16.7787" cy="16.5561" r="12.1712" fill="#C86B15"/>
</g>
<path d="M16.8443 8.08887L19.4698 13.3399L24.7208 13.9963L21.1151 18.0396L22.0953 23.8419L16.8443 21.2164L11.5933 23.8419L12.5822 18.0396L8.96777 13.9963L14.2188 13.3399L16.8443 8.08887Z" fill="white"/>
</svg>

