<svg width="46" height="43" viewBox="0 0 46 43" fill="none" xmlns="http://www.w3.org/2000/svg">
<path d="M40.5417 15.1356L39.7723 14.7143C39.6529 14.6488 39.5941 14.616 39.5364 14.5819C38.9627 14.2436 38.4791 13.7761 38.1262 13.2168C38.0907 13.1605 38.0573 13.1015 37.9889 12.9849C37.9205 12.8684 37.8859 12.8093 37.8541 12.7509C37.5376 12.169 37.3663 11.5206 37.3561 10.8606C37.3551 10.7942 37.3553 10.7264 37.3576 10.5916L37.3726 9.71202C37.3967 8.30443 37.4088 7.59845 37.2078 6.96486C37.0294 6.40209 36.7308 5.88373 36.3321 5.44384C35.8815 4.9466 35.2577 4.59185 34.0087 3.88326L32.9713 3.29468C31.7259 2.58807 31.1029 2.23464 30.4417 2.09991C29.8568 1.98071 29.2531 1.98623 28.6702 2.11506C28.0124 2.26045 27.3973 2.62309 26.1677 3.34795L26.1607 3.35124L25.4174 3.78945C25.2999 3.85874 25.2404 3.89367 25.1815 3.92591C24.5969 4.24593 23.9442 4.42289 23.2757 4.44401C23.2083 4.44614 23.1398 4.44614 23.0027 4.44614C22.8665 4.44614 22.795 4.44614 22.7278 4.44401C22.0578 4.4228 21.4038 4.24488 20.8183 3.92354C20.7593 3.89115 20.7009 3.85595 20.5831 3.78633L19.8351 3.34417C18.5971 2.61245 17.9772 2.24603 17.3157 2.09991C16.7305 1.97063 16.1248 1.96705 15.5377 2.08779C14.8748 2.22411 14.2517 2.58016 13.0055 3.29226L13 3.29468L11.9755 3.88011L11.9641 3.88694C10.7292 4.59262 10.1102 4.94632 9.66334 5.44154C9.26679 5.88099 8.97038 6.39853 8.79297 6.95981C8.59244 7.59426 8.60313 8.30175 8.62729 9.71598L8.6423 10.5943C8.64458 10.7274 8.64852 10.7935 8.64753 10.8589C8.63759 11.5202 8.46411 12.17 8.14665 12.7529C8.11525 12.8106 8.08143 12.8682 8.01387 12.9834C7.94626 13.0986 7.91352 13.1559 7.87847 13.2115C7.52401 13.7738 7.03825 14.244 6.46093 14.583C6.40382 14.6165 6.34364 14.6487 6.22539 14.7132L5.46581 15.1277C4.20203 15.8172 3.57028 16.1623 3.1106 16.6534C2.70394 17.0878 2.39673 17.6031 2.20921 18.1643C1.99723 18.7986 1.99741 19.51 2.00069 20.9325L2.00337 22.0952C2.00663 23.5083 2.01111 24.2144 2.22356 24.8444C2.41151 25.4019 2.71647 25.9141 3.12085 26.3459C3.57794 26.834 4.2034 27.1769 5.4576 27.8639L6.21041 28.2762C6.33853 28.3464 6.403 28.381 6.46478 28.4177C7.03686 28.7568 7.51882 29.2257 7.87026 29.7848C7.90823 29.8452 7.94468 29.9079 8.01756 30.0333C8.08954 30.1571 8.12637 30.219 8.15966 30.281C8.46779 30.8554 8.63277 31.4936 8.64402 32.1431C8.64523 32.2132 8.64419 32.2842 8.64175 32.4269L8.62729 33.2698C8.60296 34.6889 8.59236 35.3992 8.79408 36.0354C8.97253 36.5982 9.27079 37.1165 9.6695 37.5564C10.1202 38.0537 10.745 38.4082 11.9939 39.1168L13.0311 39.7053C14.2766 40.4119 14.8991 40.7649 15.5603 40.8996C16.1453 41.0188 16.7493 41.0142 17.3321 40.8854C17.9909 40.7398 18.6082 40.3759 19.8412 39.6489L20.5845 39.2107C20.7021 39.1414 20.7617 39.1066 20.8206 39.0744C21.4052 38.7544 22.0572 38.5765 22.7257 38.5554C22.7931 38.5532 22.8617 38.5532 22.9987 38.5532C23.1361 38.5532 23.2045 38.5532 23.2721 38.5554C23.9421 38.5766 24.598 38.7551 25.1835 39.0764C25.2351 39.1047 25.2867 39.1352 25.3773 39.1888L26.1675 39.6559C27.4056 40.3878 28.0242 40.7531 28.6858 40.8992C29.271 41.0285 29.8772 41.0338 30.4643 40.913C31.127 40.7767 31.7514 40.42 32.9968 39.7083L34.0367 39.114C35.2725 38.4079 35.8921 38.0538 36.3391 37.5584C36.7357 37.119 37.0325 36.6017 37.2099 36.0404C37.409 35.4106 37.397 34.7085 37.3731 33.3147L37.3576 32.4056C37.3553 32.2726 37.3551 32.2065 37.3561 32.141C37.366 31.4797 37.5366 30.8295 37.8541 30.2465C37.8854 30.189 37.9195 30.1309 37.9869 30.0161C38.0545 29.9009 38.0895 29.8434 38.1245 29.7878C38.479 29.2255 38.9652 28.7549 39.5425 28.416C39.599 28.3829 39.657 28.3512 39.7725 28.2882L39.7764 28.2864L40.536 27.872C41.7998 27.1824 42.4327 26.837 42.8924 26.3459C43.2991 25.9115 43.6059 25.3969 43.7934 24.8357C44.0041 24.2051 44.0025 23.4979 43.9993 22.0919L43.9965 20.9043C43.9933 19.4912 43.9915 18.7852 43.7791 18.1552C43.5911 17.5977 43.2844 17.0855 42.88 16.6537C42.4234 16.1661 41.7971 15.823 40.5453 15.1374L40.5417 15.1356Z" stroke="#262626" stroke-width="3" stroke-linecap="round" stroke-linejoin="round"/>
<path d="M14.5974 21.5001C14.5974 26.0695 18.3597 29.7737 23.0007 29.7737C27.6417 29.7737 31.4039 26.0695 31.4039 21.5001C31.4039 16.9308 27.6417 13.2266 23.0007 13.2266C18.3597 13.2266 14.5974 16.9308 14.5974 21.5001Z" stroke="#262626" stroke-width="3" stroke-linecap="round" stroke-linejoin="round"/>
</svg>

