<svg xmlns="http://www.w3.org/2000/svg" viewBox="0 0 325.65 101.7"><defs><style>.cls-1{fill:#262626;}.cls-2{fill:#fff;}</style></defs><g id="Layer_2" data-name="Layer 2"><g id="Layer_1-2" data-name="Layer 1"><path class="cls-1" d="M70.81,53.25a48.17,48.17,0,0,1,29.39,10A50.87,50.87,0,0,1,23.07,93.44,48.52,48.52,0,0,1,70.81,53.25"/><path class="cls-1" d="M78.24,8l-55,25a4.83,4.83,0,0,0-3.87-1.92A4.9,4.9,0,0,0,14.52,36a4.46,4.46,0,0,0,.1,1L.55,43.41A50.86,50.86,0,0,1,78.24,8"/><path class="cls-1" d="M19.41,38.91A2.9,2.9,0,0,0,22.3,36c0-.11,0-.21,0-.32a2.92,2.92,0,0,0-.91-1.79A2.89,2.89,0,0,0,16.52,36v.11A2.85,2.85,0,0,0,17.29,38a2.9,2.9,0,0,0,2.12.93"/><path class="cls-1" d="M80.19,9.31l-56,25.54A4.52,4.52,0,0,1,24.3,36a4.88,4.88,0,0,1-8.88,2.81L.25,45.74C.09,47.42,0,49.12,0,50.85a50.76,50.76,0,0,0,20.37,40.7A51.4,51.4,0,0,1,100.89,60,50.94,50.94,0,0,0,80.19,9.31"/><path class="cls-1" d="M169,81.19a91.59,91.59,0,0,0-9.88,20.37A50.85,50.85,0,0,1,132.59,10Z"/><path class="cls-1" d="M170.24,79.28l-36-70.49a50.87,50.87,0,0,1,79.13,36.34,92.49,92.49,0,0,0-43.12,34.15"/><path class="cls-1" d="M170,83.26l8.2,16.06a50.58,50.58,0,0,1-15.4,2.38c-.56,0-1.11,0-1.66,0A89.27,89.27,0,0,1,170,83.26"/><path class="cls-1" d="M213.68,50.85a50.87,50.87,0,0,1-33.54,47.82l-8.86-17.34A90.46,90.46,0,0,1,213.55,47.2c.09,1.2.13,2.42.13,3.65"/><path class="cls-2" d="M257.51,39.7c-.34-.05-.69-.09-1-.12l-1-.11a4.41,4.41,0,0,1,.09.89,4.09,4.09,0,0,1-.15,1.12c.33,0,.67.06,1,.11s.66.06,1,.11a5.4,5.4,0,0,0,.16-1.34,4.87,4.87,0,0,0,0-.66M247.56,39c-.34,0-.69,0-1,0h-1a5.83,5.83,0,0,0-.15,1.33,4.92,4.92,0,0,0,0,.67h2a3.71,3.71,0,0,1-.06-.67,4.11,4.11,0,0,1,.22-1.32"/><path class="cls-1" d="M323.66,48.45c.65,0,1.3,0,1.94,0A50.83,50.83,0,0,0,275.2,0a48.51,48.51,0,0,0,48.46,48.44"/><path class="cls-1" d="M319.46,75.19a50.38,50.38,0,0,0,6.19-23.79c-.66,0-1.32.05-2,.05A51.51,51.51,0,0,1,272.2.07a50.87,50.87,0,0,0-47.41,41.5A91.71,91.71,0,0,1,245.49,39a5.83,5.83,0,0,0-.15,1.33,4.92,4.92,0,0,0,0,.67,89.68,89.68,0,0,0-20.93,2.68,50.86,50.86,0,0,0,93.93,33.37,90.07,90.07,0,0,0-61-35.38,5.4,5.4,0,0,0,.16-1.34,4.87,4.87,0,0,0,0-.66,92,92,0,0,1,61.95,35.49m-68-30.72a4.1,4.1,0,0,1-4-3.44,3.71,3.71,0,0,1-.06-.67,4.11,4.11,0,0,1,8.12-.89,4.41,4.41,0,0,1,.09.89,4.09,4.09,0,0,1-4.11,4.11"/></g></g></svg>