<svg xmlns="http://www.w3.org/2000/svg" baseProfile="tiny" viewBox="0 0 101.7 101.7" overflow="visible" fill="#fff" xmlns:v="https://vecta.io/nano"><path d="M70.8 53.2c10.6 0 21 3.5 29.4 10-6.9 27.2-34.5 43.8-61.7 36.9-5.5-1.4-10.7-3.6-15.4-6.7 4-23.2 24.1-40.1 47.7-40.2M78.2 8l-55 25c-.9-1.2-2.3-1.9-3.9-1.9-2.7 0-4.9 2.2-4.8 4.9 0 .3 0 .7.1 1l-14 6.4c4.1-27.8 30-47 57.8-42.9 7 1.1 13.8 3.6 19.8 7.5M19.4 38.9c1.6 0 2.9-1.3 2.9-2.9v-.3a3.1 3.1 0 0 0-.9-1.8c-1.2-1.1-3-1-4.1.1-.5.5-.8 1.2-.8 2v.1c0 .7.3 1.4.8 1.9.5.6 1.3.9 2.1.9M80.2 9.3l-56 25.5c.1.4.1.8.1 1.1a4.91 4.91 0 0 1-4.9 4.9c-1.6 0-3.1-.8-4-2.1l-15.2 7-.2 5.1c0 16 7.5 31.1 20.4 40.7C25.9 63.7 53 45.7 80.9 51.3c7.2 1.4 14.1 4.4 20 8.7 3.5-19.5-4.5-39.3-20.7-50.7"/></svg>