<svg width="19" height="21" viewBox="0 0 19 21" fill="none" xmlns="http://www.w3.org/2000/svg">
<path d="M1 7.33333H18M1 7.33333V16.6224C1 17.8048 1 18.3956 1.23161 18.8472C1.43534 19.2444 1.76019 19.5677 2.16003 19.7701C2.61415 20 3.20893 20 4.39672 20H14.6033C15.7911 20 16.385 20 16.8391 19.7701C17.239 19.5677 17.5649 19.2444 17.7686 18.8472C18 18.3961 18 17.806 18 16.626V7.33333M1 7.33333V6.4891C1 5.30676 1 4.71515 1.23161 4.26356C1.43534 3.86633 1.76019 3.54361 2.16003 3.34121C2.6146 3.11111 3.2101 3.11111 4.40021 3.11111H5.25M18 7.33333V6.48563C18 5.3056 18 4.71471 17.7686 4.26356C17.5649 3.86633 17.239 3.54361 16.8391 3.34121C16.3845 3.11111 15.7903 3.11111 14.6002 3.11111H13.75M13.75 1V3.11111M13.75 3.11111H5.25M5.25 1V3.11111" stroke-width="1.5" stroke-linecap="round" stroke-linejoin="round" stroke="white"/>
</svg>

