<svg width="17" height="21" viewBox="0 0 17 21" fill="none" xmlns="http://www.w3.org/2000/svg">
<path d="M1 8.41196C1 13.6066 5.54768 17.9023 7.5606 19.5493C7.84868 19.785 7.99445 19.9042 8.20937 19.9647C8.37673 20.0118 8.62304 20.0118 8.7904 19.9647C9.00573 19.9041 9.15047 19.786 9.43964 19.5494C11.4526 17.9024 16 13.607 16 8.41243C16 6.4466 15.2099 4.56104 13.8033 3.17098C12.3968 1.78093 10.4893 1 8.50013 1C6.51099 1 4.60324 1.78104 3.19671 3.1711C1.79018 4.56116 1 6.44612 1 8.41196Z" stroke="white" stroke-width="1.5" stroke-linecap="round" stroke-linejoin="round"/>
<path d="M6.35717 7.4239C6.35717 8.60651 7.31657 9.56521 8.50004 9.56521C9.68352 9.56521 10.6429 8.60651 10.6429 7.4239C10.6429 6.2413 9.68352 5.2826 8.50004 5.2826C7.31657 5.2826 6.35717 6.2413 6.35717 7.4239Z" stroke="white" stroke-width="1.5" stroke-linecap="round" stroke-linejoin="round"/>
</svg>
