<svg width="34" height="46" viewBox="0 0 34 46" fill="none" xmlns="http://www.w3.org/2000/svg">
<path d="M13.694 27.4988L18.2124 30.1075L9.03689 46L6.40332 40.1266L13.694 27.4988Z" fill="white"/>
<path d="M13.694 27.4988L18.2124 30.1075L9.03689 46L6.40332 40.1266L13.694 27.4988Z" fill="#A3B3C5" fill-opacity="0.6"/>
<path d="M13.694 27.4988L9.17552 24.89L-1.84323e-05 40.7825L6.40332 40.1266L13.694 27.4988Z" fill="#A3B3C5"/>
<path d="M20.1403 27.4988L15.6218 30.1075L24.7973 46L27.4309 40.1266L20.1403 27.4988Z" fill="#A3B3C5"/>
<path d="M20.1403 27.4988L24.6587 24.89L33.8342 40.7825L27.4309 40.1266L20.1403 27.4988Z" fill="white"/>
<path d="M20.1403 27.4988L24.6587 24.89L33.8342 40.7825L27.4309 40.1266L20.1403 27.4988Z" fill="#A3B3C5" fill-opacity="0.6"/>
<circle cx="16.7785" cy="16.5562" r="16.0562" fill="#FFD43C" stroke="#A3B3C5"/>
<circle cx="16.7785" cy="16.5561" r="12.143" fill="#A88300"/>
<mask id="mask0_161_635" style="mask-type:alpha" maskUnits="userSpaceOnUse" x="5" y="5" width="25" height="26">
<circle cx="17.4267" cy="17.8525" r="12.1712" fill="#C28B37"/>
</mask>
<g mask="url(#mask0_161_635)">
<circle cx="16.7786" cy="16.5561" r="12.1712" fill="#C09525"/>
</g>
<path d="M16.8442 8.08887L19.4697 13.3399L24.7207 13.9963L21.115 18.0396L22.0952 23.8419L16.8442 21.2164L11.5932 23.8419L12.5821 18.0396L8.96765 13.9963L14.2187 13.3399L16.8442 8.08887Z" fill="white"/>
</svg>

