<svg width="19" height="18" viewBox="0 0 19 18" fill="none" xmlns="http://www.w3.org/2000/svg">
<path d="M15 17C15 13.134 11.866 10 8 10C4.13401 10 1 13.134 1 17" stroke="#262626" stroke-width="1.5" stroke-linecap="round"/>
<path d="M11 4C11 5.65685 9.65685 7 8 7C6.34315 7 5 5.65685 5 4C5 2.34315 6.34315 1 8 1C9.65685 1 11 2.34315 11 4Z" stroke="#262626" stroke-width="1.5"/>
<path d="M18 17C18 14.2328 16.6756 11.3236 14 10" stroke="#262626" stroke-width="1.5" stroke-linecap="round"/>
<path d="M13 7C14.1652 6.56332 15 5.38503 15 4C15 2.61497 14.1652 1.43668 13 1" stroke="#262626" stroke-width="1.5" stroke-linecap="round"/>
</svg>

